<svg width="28" height="32" viewBox="0 0 28 32" fill="none" xmlns="http://www.w3.org/2000/svg">
<path d="M21.7645 6.90001V14.6M25.9998 21.6001V11.1C25.9998 9.94082 25.0948 9.00002 23.9104 9.00002C23.1762 9.00002 21.7645 9.42002 21.7645 11.1V6.90001C21.7645 5.74081 20.8595 4.80001 19.6751 4.80001C18.9593 4.80001 17.5292 5.22001 17.5292 6.90001V4.10001C17.5292 2.9408 16.6242 2 15.4398 2C14.2539 2 13.2939 2.9408 13.2939 4.10001V6.90001C13.2939 5.22001 11.892 4.80001 11.1762 4.80001C9.99036 4.80001 9.05859 5.76741 9.05859 6.92801V18.8L25.9998 21.6001ZM13.2939 6.90001V14.6V6.90001ZM17.5292 6.90001V14.6V6.90001Z" stroke="black" stroke-width="2.5" stroke-linecap="round" stroke-linejoin="round"/>
<path d="M25.9998 21.5999C25.9998 27.2 21.5753 30 16.1174 30C10.6596 30 8.7819 28.6 4.54661 21.5999L2.32873 17.9529C1.57202 16.7377 2.17767 15.1613 3.57249 14.7133C4.02858 14.5656 4.51946 14.5605 4.97857 14.6987C5.43769 14.8369 5.84283 15.1118 6.13908 15.4861L9.05861 18.8461" stroke="black" stroke-width="2.5" stroke-linecap="round" stroke-linejoin="round"/>
</svg>
